<svg xmlns="http://www.w3.org/2000/svg" viewBox="0 0 128 128" shape-rendering="crispEdges">
  <g fill="none">
    <rect x="3" y="3" width="122" height="122" rx="2" stroke="#170d08" stroke-width="6"/>
    <rect x="7" y="7" width="114" height="114" stroke="#71421f" stroke-width="8"/>
    <rect x="10" y="10" width="108" height="108" stroke="#d4a24f" stroke-width="3"/>
    <rect x="14" y="14" width="100" height="100" stroke="#3b2113" stroke-width="7"/>
    <rect x="18" y="18" width="92" height="92" stroke="#ad7130" stroke-width="3"/>
    <path d="M32 8H96M32 120H96M8 32V96M120 32V96" stroke="#f0c66c" stroke-width="2"/>
    <path d="M34 12H94M34 116H94M12 34V94M116 34V94" stroke="#2a170e" stroke-width="2"/>
    <path d="M40 7H52M58 7H70M76 7H88M40 121H52M58 121H70M76 121H88" stroke="#855025" stroke-width="2"/>
  </g>
  <g stroke="#1a0e08" stroke-width="2">
    <g transform="translate(16 16)">
      <path d="M0-14 6-8 14 0 6 8 0 14-6 8-14 0-6-8Z" fill="#4a2a17"/>
      <rect x="-9" y="-9" width="18" height="18" transform="rotate(45)" fill="#a96e2d"/>
      <circle r="7" fill="#d5a44e"/>
      <path d="M-7 0H7M0-7V7" stroke="#5a341c"/>
      <circle r="2" fill="#f2ce78" stroke="none"/>
    </g>
    <g transform="translate(112 16)">
      <path d="M0-14 6-8 14 0 6 8 0 14-6 8-14 0-6-8Z" fill="#4a2a17"/>
      <rect x="-9" y="-9" width="18" height="18" transform="rotate(45)" fill="#a96e2d"/>
      <circle r="7" fill="#d5a44e"/>
      <path d="M-7 0H7M0-7V7" stroke="#5a341c"/>
      <circle r="2" fill="#f2ce78" stroke="none"/>
    </g>
    <g transform="translate(16 112)">
      <path d="M0-14 6-8 14 0 6 8 0 14-6 8-14 0-6-8Z" fill="#4a2a17"/>
      <rect x="-9" y="-9" width="18" height="18" transform="rotate(45)" fill="#a96e2d"/>
      <circle r="7" fill="#d5a44e"/>
      <path d="M-7 0H7M0-7V7" stroke="#5a341c"/>
      <circle r="2" fill="#f2ce78" stroke="none"/>
    </g>
    <g transform="translate(112 112)">
      <path d="M0-14 6-8 14 0 6 8 0 14-6 8-14 0-6-8Z" fill="#4a2a17"/>
      <rect x="-9" y="-9" width="18" height="18" transform="rotate(45)" fill="#a96e2d"/>
      <circle r="7" fill="#d5a44e"/>
      <path d="M-7 0H7M0-7V7" stroke="#5a341c"/>
      <circle r="2" fill="#f2ce78" stroke="none"/>
    </g>
  </g>
</svg>
