<svg xmlns="http://www.w3.org/2000/svg" viewBox="0 0 96 96" shape-rendering="crispEdges">
  <g fill="none">
    <rect x="3" y="3" width="90" height="90" stroke="#160c08" stroke-width="6"/>
    <rect x="7" y="7" width="82" height="82" stroke="#75451f" stroke-width="7"/>
    <rect x="10" y="10" width="76" height="76" stroke="#d0a04c" stroke-width="3"/>
    <rect x="14" y="14" width="68" height="68" stroke="#3a2114" stroke-width="6"/>
    <rect x="17" y="17" width="62" height="62" stroke="#a96c2d" stroke-width="2"/>
    <path d="M26 8H70M26 88H70M8 26V70M88 26V70" stroke="#edc56c" stroke-width="2"/>
  </g>
  <g fill="#c8923f" stroke="#1b0f09" stroke-width="2">
    <path d="M14 2 22 10 14 22 6 14Z"/>
    <path d="M82 2 90 14 82 22 74 10Z"/>
    <path d="M14 74 22 86 14 94 6 82Z"/>
    <path d="M82 74 90 82 82 94 74 86Z"/>
  </g>
  <g fill="#f0c66c">
    <circle cx="14" cy="14" r="2"/>
    <circle cx="82" cy="14" r="2"/>
    <circle cx="14" cy="82" r="2"/>
    <circle cx="82" cy="82" r="2"/>
  </g>
</svg>
